<svg width="194" height="28" viewBox="0 0 194 28" fill="none" xmlns="http://www.w3.org/2000/svg">
<path d="M15.8964 14.3527C19.7841 14.3527 23.9047 16.0683 23.9047 21.1764C23.9047 24.5304 22.019 27.6106 15.8576 27.6106H0V0.70163H15.4269C21.4331 0.70163 23.3149 3.93996 23.3149 7.13589C23.3149 11.7389 18.9189 13.1808 15.8964 13.1808V14.3527ZM12.8738 13.4545C14.9147 13.4545 15.8576 12.6757 15.8576 11.0759C15.8576 9.47597 14.9147 8.69722 12.8738 8.69722H7.84924V13.4545H12.8738ZM13.3045 19.615C15.5433 19.615 16.4434 18.524 16.4434 16.8856C16.4434 15.2471 15.5394 14.1561 13.3045 14.1561H7.84924V19.615H13.3045Z" fill="currentColor"/>
<path d="M33.5969 0.70163H26.062V27.6106H33.5969V0.70163Z" fill="currentColor"/>
<path d="M35.5563 17.8609C35.5563 11.1915 40.3054 7.72186 45.4852 7.72186C50.665 7.72186 55.4142 11.1954 55.4142 17.8609C55.4142 24.5265 50.665 28 45.4852 28C40.3054 28 35.5563 24.5265 35.5563 17.8609ZM42.6994 17.8609C42.6994 19.1485 43.4832 20.706 45.4852 20.706C47.4873 20.706 48.2711 19.1447 48.2711 17.8609C48.2711 16.5772 47.4873 15.0158 45.4852 15.0158C43.4832 15.0158 42.6994 16.5772 42.6994 17.8609Z" fill="currentColor"/>
<path d="M69.2929 19.1485L76.6727 19.4608C76.5175 23.8287 73.6114 28 66.9378 28C61.758 28 57.0088 24.5303 57.0088 17.8609C57.0088 11.1915 61.758 7.72186 66.9378 7.72186C73.2971 7.72186 76.1993 12.3635 76.6339 15.7946L69.1765 16.4576C68.8234 15.6404 68.0397 15.0158 66.9378 15.0158C64.9357 15.0158 64.1519 16.5772 64.1519 17.8648C64.1519 19.1524 64.9357 20.7099 66.9378 20.7099C68.2725 20.7099 69.0989 20.0468 69.2929 19.1485Z" fill="currentColor"/>
<path d="M91.3585 27.6106L84.4909 11.6233H83.3152L86.7684 21.5657V27.6106H78.7213V0.70163H86.1787V13.6472L86.6482 14.7421L90.7687 8.11124H98.9749L94.2646 15.598L99.4444 27.6106H91.3585Z" fill="currentColor"/>
<path d="M106.929 27.6106H101.121C101.474 24.9197 101.512 22.8919 101.512 20.3552V0.70163H108.97V4.29078C108.97 7.05878 107.635 15.2086 106.731 17.9033H107.911C109.129 13.8092 109.56 7.72572 111.798 7.72572C116.586 7.72572 121.688 10.9255 121.688 17.8648C121.688 24.3414 117.215 28.0038 113.055 28.0038C108.462 28.0038 105.714 20.7484 104.814 18.605H103.635L106.933 27.6145L106.929 27.6106ZM114.541 17.8609C114.541 15.9488 113.052 15.0158 111.756 15.0158C110.46 15.0158 108.97 15.9526 108.97 17.8609C108.97 19.7692 110.343 20.706 111.756 20.706C113.168 20.706 114.541 19.7692 114.541 17.8609Z" fill="currentColor"/>
<path d="M124.04 0H131.497V6.63087H124.04V0ZM124.04 8.11125H131.497V27.6106H124.04V8.11125Z" fill="currentColor"/>
<path d="M143.863 15.6365C143.863 20.0815 143.979 20.3938 145.434 20.3938H146.73V27.6068C145.042 27.9191 143.983 27.9962 142.609 27.9962C137.783 27.9962 136.409 25.3053 136.409 20.4709V15.598H134.446V8.11126H135.703C136.999 8.11126 137.193 7.91465 137.193 5.45891V2.30154L144.65 1.5228V3.23834C144.65 6.20296 141.119 7.80285 137.783 7.80285V8.97481L146.928 8.11511L146.536 15.6018L143.867 15.6404L143.863 15.6365Z" fill="currentColor"/>
<path d="M168.551 18.1346H156.03C156.147 19.3452 156.973 20.7099 158.816 20.7099C160.112 20.7099 160.973 20.0082 161.171 19.1485L168.551 19.4608C168.392 23.8287 165.49 28 158.816 28C153.636 28 148.887 24.5303 148.887 17.8609C148.887 11.1915 153.636 7.72186 158.816 7.72186C165.684 7.72186 168.551 13.1808 168.551 17.1207V18.1346ZM161.249 17.5101C161.249 16.3805 160.422 15.012 158.816 15.012C157.012 15.012 156.186 16.2996 156.03 17.5101H161.253H161.249Z" fill="currentColor"/>
<path d="M181.658 19.3837C181.658 18.4084 180.598 17.9804 177.89 17.9804C173.653 17.9804 170.51 17.0436 170.51 13.7282C170.51 10.1815 174.123 7.72186 179.225 7.72186C186.29 7.72186 188.529 11.9317 188.529 15.2086L181.072 15.9873C181.072 15.6365 180.796 14.9734 179.423 14.9734C178.325 14.9734 177.774 15.4399 177.774 16.0644C177.774 17.194 179.147 17.352 181.033 17.352C186.605 17.352 188.921 18.3274 188.921 21.6814C188.921 25.3091 186.135 28 180.09 28C172.986 28 170.553 24.3337 170.553 20.12L178.011 19.3413C178.011 20.0429 178.523 20.7446 179.776 20.7446C181.029 20.7446 181.658 20.1971 181.658 19.3799" fill="currentColor"/>
<path d="M189.577 6.15282C189.577 4.93459 190.562 3.95538 191.788 3.95538C193.014 3.95538 194 4.93459 194 6.15282C194 7.37105 193.014 8.35026 191.788 8.35026C190.562 8.35026 189.577 7.37105 189.577 6.15282ZM193.872 6.15282C193.872 5.00013 192.949 4.0826 191.788 4.0826C190.628 4.0826 189.705 5.00013 189.705 6.15282C189.705 7.30551 190.628 8.22304 191.788 8.22304C192.949 8.22304 193.872 7.30551 193.872 6.15282ZM190.434 6.16053C190.434 5.26228 191.094 4.80352 191.788 4.80352C192.63 4.80352 193.034 5.3895 193.077 5.78658L192.242 5.85598C192.204 5.73261 192.037 5.56684 191.769 5.56684C191.462 5.56684 191.187 5.77116 191.187 6.16053C191.187 6.5499 191.462 6.75423 191.777 6.75423C192.064 6.75423 192.231 6.55761 192.266 6.41883L193.084 6.44967C193.053 6.90843 192.642 7.5214 191.785 7.5214C191.074 7.5214 190.438 7.06264 190.438 6.16439" fill="currentColor"/>
</svg>
